# xmcd
#
# Track frame offsets: 
#        182
#        27860
#        53242
#        65975
#        106270
#        130700
#        159010
#        181665
#        217265
#        236027
#
# Disc length: 3373 seconds
#
# Revision: 1
# Processed by: cddbd v1.5.2PL0 Copyright (c) Steve Scherf et al.
# Submitted via: ExactAudioCopyFreeDBPlugin 1.0
#
DISCID=860d2b0a
DTITLE=Van Morrison - Buonasera
DYEAR=1900
DGENRE=Blues
TTITLE0=I've been working
TTITLE1=Friday's child
TTITLE2=Hound dog
TTITLE3=Ballerina
TTITLE4=Dead or alive
TTITLE5=Tupelo honey
TTITLE6=Wild night
TTITLE7=Just like a woman
TTITLE8=Blue monday
TTITLE9=Buonasera signorina
EXTD=
EXTT0=
EXTT1=
EXTT2=
EXTT3=
EXTT4=
EXTT5=
EXTT6=
EXTT7=
EXTT8=
EXTT9=
PLAYORDER=
